{"glyphs":{":":{"x_min":0,"x_max":281,"ha":281,"o":"m 225 454 q 254 454 275 434 q 296 413 296 377 q 296 336 270 307 q 245 278 208 278 q 180 278 160 297 q 140 316 140 351 q 140 391 165 423 q 189 454 225 454 z m 143 162 q 172 162 193 142 q 214 121 214 85 q 214 45 188 15 q 162 -14 126 -14 q 98 -14 78 5 q 58 24 58 59 q 58 99 83 131 q 107 162 143 162 z"},"$":{"x_min":0,"x_max":490,"ha":490,"o":"m 553 616 q 518 545 503 498 l 466 504 q 467 517 467 526 q 467 596 412 616 l 350 401 q 358 393 395 338 q 432 284 442 256 q 453 229 453 199 q 453 123 396 58 q 338 -6 229 -16 l 206 -95 l 150 -95 l 173 -14 q 91 -5 29 27 q 52 75 80 163 l 119 158 q 118 142 118 132 q 118 60 188 38 l 263 298 q 199 382 182 419 q 164 456 164 489 q 164 555 213 605 q 263 656 370 669 l 386 721 l 443 721 l 426 666 q 500 655 553 616 z m 356 622 q 277 606 277 536 q 277 504 309 459 z m 245 38 q 291 48 312 80 q 333 111 333 151 q 333 188 304 242 z"},"?":{"x_min":0,"x_max":417,"ha":417,"o":"m 191 655 q 261 692 331 692 q 402 692 441 659 q 479 626 479 572 q 479 522 449 483 q 419 443 375 405 q 308 346 280 309 q 251 271 230 213 l 182 213 q 208 330 286 428 q 335 490 348 515 q 361 540 361 562 q 361 589 344 606 q 327 623 299 623 q 269 623 247 604 q 224 584 196 526 l 156 526 q 188 635 191 655 z m 178 162 q 207 162 228 142 q 249 121 249 85 q 249 45 223 16 q 198 -14 161 -14 q 131 -14 112 7 q 93 28 93 61 q 93 99 117 130 q 142 162 178 162 z"},"<":{"x_min":0,"x_max":667,"ha":667,"o":"m 649 68 l 111 293 l 111 375 l 649 600 l 649 503 l 234 334 l 649 166 z"},"'":{"x_min":0,"x_max":281,"ha":281,"o":"m 201 363 q 205 557 206 578 q 207 600 217 626 q 227 652 253 670 q 279 688 308 688 q 360 688 360 634 q 360 622 355 608 q 350 595 313 526 l 225 363 z"},"=":{"x_min":0,"x_max":667,"ha":667,"o":"m 662 400 l 123 400 l 123 490 l 662 490 z m 662 168 l 123 168 l 123 258 l 662 258 z"},"a":{"x_min":0,"x_max":490,"ha":490,"o":"m 493 429 q 452 347 420 237 q 388 126 388 109 q 388 95 397 95 q 410 95 456 135 l 477 111 q 416 49 364 17 q 313 -14 288 -14 q 261 -14 261 10 q 261 36 283 99 q 285 103 293 127 l 291 129 q 231 55 189 21 q 147 -14 113 -14 q 75 -14 54 21 q 33 57 33 115 q 33 242 131 348 q 228 454 369 454 q 387 454 457 449 q 475 447 486 447 z m 358 389 q 331 403 311 403 q 255 403 205 319 q 155 235 155 148 q 155 93 189 93 q 214 93 256 137 q 297 182 346 348 z"},"L":{"x_min":0,"x_max":615,"ha":615,"o":"m 619 197 q 597 145 549 -5 q 399 0 183 0 q 102 0 -28 -5 l -17 29 q -16 29 -7 31 q 59 42 70 48 q 81 54 100 102 q 111 131 176 356 q 241 581 241 607 q 241 619 230 624 q 218 628 175 637 q 173 637 162 639 q 151 641 149 641 l 159 676 q 271 670 345 670 q 421 670 517 676 l 508 641 q 420 625 410 621 q 399 617 392 603 q 384 588 368 542 q 353 495 318 371 q 284 248 268 186 q 252 125 231 53 l 382 53 q 443 53 461 57 q 479 61 504 91 q 529 120 574 197 z"},"3":{"x_min":0,"x_max":490,"ha":490,"o":"m 219 648 q 285 687 354 687 q 423 687 460 655 q 497 623 497 575 q 497 529 466 490 q 436 452 360 414 q 461 382 461 265 q 461 158 384 70 q 306 -17 174 -17 q 91 -17 25 18 q 55 85 71 149 l 111 149 q 111 84 134 59 q 157 34 196 34 q 257 34 294 97 q 332 161 332 232 q 332 361 195 370 l 206 409 q 298 427 343 463 q 388 500 388 548 q 388 577 370 594 q 352 612 322 612 q 296 612 277 600 q 257 587 233 551 l 192 551 q 212 605 219 648 z"},";":{"x_min":0,"x_max":281,"ha":281,"o":"m 225 454 q 254 454 275 434 q 296 413 296 377 q 296 336 270 307 q 245 278 208 278 q 180 278 160 297 q 140 316 140 351 q 140 391 165 423 q 189 454 225 454 z m 134 158 q 205 121 205 40 q 205 -22 164 -78 q 122 -134 8 -210 l -19 -169 q 94 -73 94 -9 q 94 9 87 18 q 80 27 69 30 q 67 31 47 31 l 31 61 q 88 103 134 158 z"},"J":{"x_min":0,"x_max":458,"ha":458,"o":"m 609 676 l 599 641 q 523 630 509 618 q 495 606 468 520 q 442 434 406 302 l 384 220 q 375 183 358 133 q 342 83 312 49 q 281 15 238 -3 q 195 -20 140 -20 q 79 -20 7 11 q 34 74 59 187 l 108 187 q 102 138 102 116 q 102 37 148 37 q 173 37 191 64 q 209 92 280 344 q 350 596 350 608 q 350 615 346 619 q 342 624 300 632 q 259 641 255 641 l 265 676 q 361 670 439 670 q 513 670 609 676 z"},"V":{"x_min":0,"x_max":688,"ha":688,"o":"m 838 676 l 829 642 q 828 642 823 640 q 807 636 786 631 q 765 625 751 613 q 737 601 624 463 l 417 206 q 322 86 246 -20 l 202 -20 q 215 117 230 334 q 244 550 244 588 q 244 605 239 612 q 234 618 206 626 l 144 642 l 154 676 q 267 670 327 670 q 417 670 503 676 l 493 642 l 469 635 q 425 624 410 615 q 396 605 390 582 q 384 559 375 451 l 353 207 l 355 205 l 623 570 q 649 604 649 613 q 649 623 639 629 q 629 634 596 640 q 590 640 585 642 l 596 676 q 679 670 722 670 q 754 670 838 676 z"},"\"":{"x_min":0,"x_max":552,"ha":552,"o":"m 438 363 q 442 557 443 578 q 444 600 454 626 q 464 652 490 670 q 517 688 545 688 q 597 688 597 634 q 597 622 592 608 q 587 595 550 526 l 462 363 z m 202 363 q 206 557 207 578 q 208 600 218 626 q 228 652 254 670 q 280 688 309 688 q 361 688 361 634 q 361 622 356 608 q 351 595 314 526 l 226 363 z"},"7":{"x_min":0,"x_max":490,"ha":490,"o":"m 582 676 l 573 628 l 483 462 l 399 303 l 236 -17 q 207 -14 170 -14 q 148 -14 103 -17 l 93 0 q 247 212 478 569 l 284 569 q 255 569 242 563 q 229 558 211 529 q 193 501 189 490 l 142 490 q 183 583 215 676 q 333 670 401 670 q 492 670 582 676 z"},"S":{"x_min":0,"x_max":542,"ha":542,"o":"m 599 647 q 576 579 560 490 q 558 477 557 476 l 510 479 q 509 562 501 590 q 493 618 464 630 q 436 642 408 642 q 363 642 334 615 q 305 588 305 549 q 305 521 324 491 q 344 462 405 400 q 465 340 488 298 q 511 256 511 208 q 511 119 438 49 q 365 -20 232 -20 q 130 -20 35 22 q 67 109 90 225 l 139 225 q 138 178 138 160 q 138 121 147 99 q 155 78 173 63 q 191 47 211 42 q 231 37 250 37 q 302 37 334 72 q 365 107 365 160 q 365 195 350 229 q 335 262 271 328 q 211 389 190 424 q 168 459 168 501 q 168 576 236 634 q 304 692 416 692 q 513 692 599 647 z"},"}":{"x_min":0,"x_max":396,"ha":396,"o":"m 362 222 q 267 206 267 116 q 267 82 277 43 q 292 -6 292 -44 q 292 -98 246 -147 q 201 -196 92 -202 l 92 -180 q 187 -162 187 -88 q 187 -49 176 -9 q 163 47 163 76 q 163 126 203 173 q 244 219 323 235 l 323 237 q 235 261 199 306 q 162 352 162 398 q 162 427 174 475 q 186 521 186 558 q 186 637 92 654 l 92 677 q 191 677 242 627 q 293 577 293 520 q 293 480 278 430 q 267 386 267 354 q 267 270 362 252 z"},"Z":{"x_min":0,"x_max":615,"ha":615,"o":"m 701 676 l 691 640 q 690 635 653 593 l 369 265 l 240 112 q 194 57 191 54 l 418 54 q 455 54 474 60 q 494 66 517 94 q 541 123 577 188 l 621 188 l 554 -5 q 403 0 286 0 q 152 0 3 -5 l 15 32 l 271 331 l 512 616 l 332 616 q 275 616 255 600 q 234 584 205 524 q 201 515 191 497 l 149 497 q 176 583 188 629 q 200 675 200 676 q 312 670 466 670 q 582 670 701 676 z"},"x":{"x_min":0,"x_max":469,"ha":469,"o":"m 506 438 q 488 391 474 339 l 455 339 q 442 368 421 368 q 398 368 375 345 q 351 321 303 247 q 312 206 327 158 q 342 110 347 100 q 352 91 361 91 q 380 91 431 146 l 457 124 q 411 62 358 24 q 305 -14 278 -14 q 251 -14 241 28 l 215 127 q 125 -14 44 -14 q 12 -14 -23 9 q -2 50 13 97 l 31 95 q 50 67 71 67 q 91 67 115 85 q 139 103 189 172 q 192 178 199 185 q 192 213 174 275 q 155 336 151 343 q 147 350 139 350 q 125 350 85 313 q 80 307 70 298 l 44 319 q 102 386 147 420 q 193 454 217 454 q 234 454 245 432 q 256 411 277 336 q 281 316 285 308 q 355 416 383 435 q 411 454 448 454 q 476 454 506 438 z"},")":{"x_min":0,"x_max":323,"ha":323,"o":"m 198 715 q 333 582 333 386 q 333 210 228 48 q 123 -115 -71 -213 l -55 -156 q 76 -44 149 130 q 223 304 223 477 q 223 582 182 665 z"},"&":{"x_min":0,"x_max":719,"ha":719,"o":"m 731 359 l 723 329 q 686 320 666 310 q 646 300 628 275 q 551 167 533 147 q 573 84 615 84 q 639 84 693 121 l 719 88 l 651 34 q 633 20 601 3 q 570 -14 542 -14 q 485 -14 430 50 q 339 -14 226 -14 q 137 -14 90 33 q 43 81 43 150 q 43 229 99 289 q 156 349 298 403 q 291 445 291 487 q 291 552 319 598 q 346 645 395 668 q 443 692 490 692 q 542 692 570 665 q 598 638 598 594 q 598 486 429 409 q 458 276 505 192 q 561 261 561 299 q 561 318 518 329 l 527 359 q 591 354 630 354 q 671 354 731 359 z m 422 457 q 515 500 515 585 q 515 614 501 633 q 488 653 466 653 q 414 653 414 548 q 414 518 422 457 z m 403 92 q 333 210 305 359 q 233 322 204 282 q 175 242 175 192 q 175 136 212 99 q 250 61 307 61 q 353 61 403 92 z"},"_":{"x_min":0,"x_max":500,"ha":500,"o":"m 506 -125 l -6 -125 l -6 -75 l 506 -75 z"},"v":{"x_min":0,"x_max":427,"ha":427,"o":"m 407 459 q 460 435 460 378 q 460 335 430 288 q 401 240 322 152 q 243 63 164 -14 l 124 -14 q 125 65 125 117 q 125 234 120 279 q 115 324 112 332 q 109 341 100 341 q 93 341 50 305 l 30 328 q 152 454 197 454 q 209 454 219 446 q 229 438 236 403 q 243 367 243 264 q 244 162 245 142 q 300 202 334 257 q 368 312 368 340 q 368 366 339 366 l 332 383 q 370 413 407 459 z"},"O":{"x_min":0,"x_max":729,"ha":729,"o":"m 529 692 q 643 692 701 627 q 760 562 760 463 q 760 343 698 229 q 637 114 533 47 q 429 -20 308 -20 q 191 -20 137 47 q 82 114 82 218 q 82 321 141 437 q 201 553 302 622 q 404 692 529 692 z m 355 36 q 400 36 437 64 q 473 92 516 159 q 559 227 583 312 q 608 398 608 480 q 608 555 579 598 q 550 641 495 641 q 428 641 368 573 q 308 504 270 394 q 232 284 232 204 q 232 36 355 36 z"},"(":{"x_min":0,"x_max":333,"ha":333,"o":"m 458 715 l 442 658 q 312 546 238 372 q 164 198 164 25 q 164 -80 205 -163 l 189 -213 q 54 -80 54 116 q 54 292 159 454 q 265 617 458 715 z"},"C":{"x_min":0,"x_max":646,"ha":646,"o":"m 740 645 q 694 517 685 460 l 639 463 q 639 550 638 562 q 633 594 616 610 q 598 626 573 633 q 547 639 525 639 q 407 639 321 517 q 236 395 236 249 q 236 167 275 118 q 315 70 387 70 q 432 70 479 88 q 525 107 596 156 l 627 115 q 469 -20 318 -20 q 206 -20 145 50 q 84 119 84 224 q 84 343 145 453 q 205 563 309 628 q 413 692 534 692 q 632 692 740 645 z"},"W":{"x_min":0,"x_max":979,"ha":979,"o":"m 1128 676 l 1117 641 q 1056 625 1040 615 q 1024 604 942 496 l 789 288 l 569 -20 l 523 -20 l 534 93 l 556 415 l 554 417 l 242 -20 l 197 -20 q 238 483 238 587 q 238 606 232 612 q 226 618 184 630 q 143 641 140 641 l 151 676 q 248 670 318 670 q 386 670 480 676 l 471 641 q 463 641 433 631 q 402 620 394 609 q 387 597 380 539 l 345 219 l 347 217 l 564 525 q 566 551 566 578 q 566 611 555 620 q 544 629 488 641 l 497 676 q 627 670 669 670 q 717 670 827 676 l 817 642 q 737 620 724 607 q 710 595 706 552 l 671 219 l 673 217 l 909 562 q 938 604 938 615 q 938 628 913 635 q 887 641 874 641 l 884 676 q 953 670 1017 670 q 1067 670 1128 676 z"},"A":{"x_min":0,"x_max":687,"ha":687,"o":"m 664 29 l 655 -5 q 570 0 491 0 q 405 0 304 -5 l 314 29 q 314 29 320 31 q 394 50 407 64 q 420 78 430 172 q 432 196 434 203 l 260 203 q 206 132 183 98 q 159 64 159 54 q 159 44 167 41 q 174 38 209 32 q 211 32 216 30 q 221 29 222 29 l 212 -5 q 148 0 94 0 q 43 0 -31 -5 l -21 29 l 13 38 q 40 44 53 55 q 67 65 139 152 q 212 239 371 443 q 530 647 560 692 l 604 692 q 590 556 577 343 q 565 129 565 84 q 565 69 570 62 q 574 55 594 48 q 613 42 664 29 z m 462 473 l 460 475 q 312 270 298 253 l 439 253 l 452 384 q 458 455 462 473 z"},"f":{"x_min":0,"x_max":292,"ha":292,"o":"m 527 684 q 510 653 490 588 q 490 584 485 572 l 445 577 q 445 666 389 666 q 357 666 332 628 q 307 589 266 438 q 348 438 376 441 l 382 430 q 364 407 354 382 q 325 388 253 388 l 161 42 q 125 -97 49 -153 q -26 -210 -92 -210 q -134 -210 -183 -181 q -155 -144 -133 -96 l -117 -96 q -103 -124 -84 -136 q -65 -149 -48 -149 q -17 -149 3 -110 q 23 -71 43 11 l 137 388 q 90 388 70 385 l 80 421 q 118 430 150 445 q 176 548 200 588 q 224 628 286 670 q 348 712 419 712 q 476 712 527 684 z"},"Q":{"x_min":0,"x_max":729,"ha":729,"o":"m 118 73 q 82 132 82 209 q 82 325 143 440 q 204 555 307 624 q 410 692 528 692 q 639 692 699 631 q 759 571 759 461 q 759 343 701 233 q 644 123 546 56 q 448 -11 334 -11 q 318 -11 295 -10 l 293 -12 q 463 -97 536 -97 q 591 -97 657 -58 l 679 -95 q 536 -188 484 -188 q 431 -188 336 -106 q 261 -42 201 -8 q 142 26 60 35 l 73 79 q 92 78 118 73 z m 355 35 q 398 35 435 62 q 473 89 517 162 q 562 235 585 320 q 609 405 609 487 q 609 538 594 572 q 580 606 552 624 q 525 641 493 641 q 429 641 369 573 q 309 505 271 395 q 233 284 233 195 q 233 116 267 76 q 301 35 355 35 z"},"w":{"x_min":0,"x_max":667,"ha":667,"o":"m 650 462 q 701 437 701 378 q 701 325 667 275 q 632 225 556 142 q 479 58 406 -14 l 367 -14 l 352 258 l 350 258 l 164 -14 l 122 -14 q 122 245 116 315 q 113 340 98 340 q 91 340 48 306 l 27 329 q 155 454 196 454 q 222 454 232 407 q 242 359 242 188 l 244 188 l 428 454 l 469 454 l 484 145 q 609 273 609 341 q 609 350 606 357 q 604 363 599 365 q 595 366 582 366 l 574 383 q 616 417 650 462 z"},"-":{"x_min":0,"x_max":312,"ha":312,"o":"m 315 254 q 292 214 275 162 q 204 167 123 167 q 71 167 37 162 l 26 178 q 51 219 70 270 q 140 267 175 267 q 210 267 304 270 z"},"E":{"x_min":0,"x_max":635,"ha":635,"o":"m 698 676 q 674 604 652 496 l 614 496 q 611 591 609 600 q 606 609 593 614 q 580 619 541 619 l 391 619 l 321 378 l 394 378 q 423 378 439 383 q 454 388 471 410 q 489 432 507 470 l 547 470 q 495 307 476 217 l 436 217 q 440 271 440 298 q 440 315 429 322 q 418 328 382 328 l 306 328 l 279 233 l 231 54 l 412 54 q 454 54 472 60 q 490 66 510 92 q 531 117 574 188 l 616 188 q 588 116 549 -5 l 225 0 q 107 0 -26 -5 l -17 29 q 60 42 73 50 q 87 58 116 153 l 194 420 q 243 593 243 608 q 243 618 235 622 q 228 627 151 641 l 160 676 q 253 670 390 670 q 543 670 698 676 z"},"s":{"x_min":0,"x_max":344,"ha":344,"o":"m 369 425 q 346 364 335 324 l 303 324 q 294 414 228 414 q 207 414 192 402 q 177 391 177 373 q 177 359 188 341 q 199 322 237 286 q 322 206 322 143 q 322 82 264 34 q 206 -14 114 -14 q 40 -14 -13 25 q 15 79 36 128 l 60 123 q 63 81 90 61 q 117 41 154 41 q 183 41 198 55 q 213 70 213 89 q 213 126 156 187 q 99 248 86 272 q 74 296 74 320 q 74 375 124 415 q 174 454 248 454 q 310 454 369 425 z"},">":{"x_min":0,"x_max":667,"ha":667,"o":"m 661 293 l 123 68 l 123 165 l 539 334 l 123 502 l 123 600 l 661 375 z"},"l":{"x_min":0,"x_max":281,"ha":281,"o":"m 361 692 q 322 602 275 458 q 228 313 205 234 l 169 111 q 168 107 168 105 q 168 96 176 96 q 191 96 227 127 q 228 129 236 135 l 260 111 q 129 -14 57 -14 q 30 -14 30 10 q 30 21 58 113 l 124 333 q 201 585 201 598 q 201 609 196 613 q 191 616 179 616 q 164 616 136 613 l 145 645 q 269 672 339 712 z"},"8":{"x_min":0,"x_max":490,"ha":490,"o":"m 235 358 q 171 441 171 510 q 171 552 196 595 q 221 638 268 663 q 315 688 380 688 q 454 688 491 655 q 528 622 528 567 q 528 518 497 477 q 466 437 378 386 q 468 288 468 205 q 468 120 395 51 q 322 -17 218 -17 q 142 -17 98 26 q 54 68 54 133 q 54 195 92 246 q 129 296 235 358 z m 346 426 q 431 485 431 563 q 431 596 413 617 q 395 638 367 638 q 335 638 311 613 q 287 587 287 550 q 287 500 346 426 z m 347 154 q 347 219 268 317 q 156 248 156 144 q 156 103 181 71 q 206 39 246 39 q 290 39 319 74 q 347 109 347 154 z"},"\\":{"x_min":0,"x_max":563,"ha":563,"o":"m 554 -2 l 458 -2 l 101 712 l 198 712 z"},"e":{"x_min":0,"x_max":396,"ha":396,"o":"m 356 86 q 231 -14 138 -14 q 88 -14 61 22 q 34 59 34 123 q 34 245 126 350 q 218 454 347 454 q 426 454 426 394 q 426 327 360 274 q 295 221 158 193 q 157 174 157 161 q 157 68 216 68 q 236 68 260 79 q 284 89 331 117 z m 165 237 q 243 257 279 295 q 315 334 315 376 q 315 407 289 407 q 258 407 225 367 q 191 328 165 237 z"},"b":{"x_min":0,"x_max":469,"ha":469,"o":"m 217 314 q 248 354 289 393 q 330 432 348 443 q 367 454 385 454 q 418 454 441 422 q 464 390 464 331 q 464 203 376 94 q 289 -14 155 -14 q 101 -14 72 7 q 43 29 43 69 q 43 102 64 174 l 178 564 q 179 565 183 580 q 187 595 187 603 q 187 617 171 617 q 156 617 123 613 l 131 647 q 235 667 326 712 l 346 694 q 283 538 226 352 q 225 347 215 316 z m 203 37 q 250 37 297 112 q 343 187 343 280 q 343 345 313 345 q 277 345 218 257 q 159 168 159 91 q 159 37 203 37 z"},"%":{"x_min":0,"x_max":760,"ha":760,"o":"m 723 686 l 220 -43 l 151 -43 l 654 686 z m 301 686 q 347 686 372 659 q 398 631 398 580 q 398 485 344 399 q 290 313 209 313 q 159 313 134 344 q 109 375 109 420 q 109 511 166 599 q 223 686 301 686 z m 221 352 q 239 352 255 372 q 271 392 292 464 q 314 537 314 588 q 314 646 285 646 q 246 646 219 555 q 193 464 193 407 q 193 352 221 352 z m 663 330 q 708 330 733 303 q 759 275 759 224 q 759 128 705 42 q 651 -43 570 -43 q 521 -43 495 -12 q 470 19 470 63 q 470 154 527 242 q 584 330 663 330 z m 583 -5 q 601 -5 616 15 q 632 35 653 108 q 675 180 675 232 q 675 290 647 290 q 608 290 582 199 q 555 109 555 51 q 555 -5 583 -5 z"},"m":{"x_min":0,"x_max":760,"ha":760,"o":"m 747 109 q 690 52 636 19 q 582 -14 547 -14 q 514 -14 514 15 q 514 30 531 84 q 548 139 565 185 q 577 218 593 269 q 609 319 609 330 q 609 346 596 346 q 577 346 526 292 q 476 239 452 190 q 428 142 388 0 q 301 0 265 -5 q 366 292 366 327 q 366 343 353 343 q 336 343 289 290 q 241 237 215 190 q 189 144 154 16 q 151 2 150 0 q 67 0 28 -5 q 62 86 96 200 q 130 313 130 320 q 130 333 119 333 q 113 333 104 326 l 69 296 l 47 321 q 114 388 164 421 q 214 454 242 454 q 267 454 267 429 q 267 382 213 260 l 215 258 q 368 454 457 454 q 495 454 495 413 q 495 372 449 260 l 451 258 q 601 454 699 454 q 745 454 745 412 q 745 392 741 375 l 658 127 q 653 114 653 105 q 653 92 663 92 q 677 92 724 135 z"},"#":{"x_min":0,"x_max":667,"ha":667,"o":"m 686 170 l 534 170 l 493 -20 l 412 -20 l 453 170 l 267 170 l 228 -20 l 147 -20 l 186 170 l 99 170 l 99 250 l 203 250 l 237 410 l 99 410 l 99 491 l 252 491 l 294 682 l 374 682 l 333 491 l 518 491 l 558 682 l 639 682 l 598 491 l 686 491 l 686 410 l 583 410 l 549 250 l 686 250 z m 502 410 l 317 410 l 284 251 l 469 251 z"},",":{"x_min":0,"x_max":281,"ha":281,"o":"m 134 158 q 205 121 205 40 q 205 -22 164 -78 q 122 -134 8 -210 l -19 -169 q 94 -73 94 -9 q 94 9 87 18 q 80 27 69 30 q 67 31 47 31 l 31 61 q 88 103 134 158 z"},"n":{"x_min":0,"x_max":521,"ha":521,"o":"m 509 110 q 375 -14 310 -14 q 278 -14 278 16 q 278 23 281 38 q 284 53 302 106 l 368 307 q 373 319 373 330 q 373 344 361 344 q 343 344 310 314 q 277 285 248 244 q 218 204 200 160 q 183 116 150 0 q 62 0 29 -5 q 103 224 124 297 q 129 307 129 319 q 129 332 120 332 q 113 332 92 317 q 71 301 68 298 l 46 321 q 183 454 242 454 q 266 454 266 428 q 266 397 212 261 l 214 259 q 363 454 462 454 q 507 454 507 412 q 507 398 503 382 l 420 121 q 417 112 417 106 q 417 96 427 96 q 443 96 487 134 z"},"h":{"x_min":0,"x_max":510,"ha":510,"o":"m 498 111 q 437 48 386 17 q 334 -14 300 -14 q 286 -14 276 -5 q 266 3 266 16 q 266 30 274 55 l 333 229 q 364 321 364 330 q 364 345 351 345 q 329 345 280 293 q 231 240 206 194 q 180 148 140 0 q 63 0 19 -5 q 42 66 77 181 l 187 546 q 200 593 200 600 q 200 615 182 615 q 166 615 135 610 l 145 645 q 265 673 337 711 l 358 692 q 317 599 286 500 l 231 324 q 220 286 216 278 l 218 276 q 290 371 351 412 q 412 454 452 454 q 470 454 483 444 q 496 433 496 413 q 496 376 452 254 q 408 127 408 107 q 408 94 417 94 q 431 94 478 135 z"},"z":{"x_min":0,"x_max":396,"ha":396,"o":"m 430 418 q 366 341 319 295 q 271 250 175 165 q 104 103 70 66 l 72 64 q 141 114 182 114 q 209 114 238 105 q 287 91 303 91 q 337 91 369 147 l 399 132 q 361 53 333 23 q 304 -7 274 -7 q 242 -7 177 7 q 112 20 78 20 q 31 20 -8 -9 l -31 14 q 27 100 108 175 q 188 250 309 352 l 307 354 q 269 328 238 328 q 213 328 198 333 q 153 348 143 348 q 121 348 90 299 l 59 312 q 115 444 171 444 q 193 444 245 427 q 291 414 316 414 q 358 414 407 444 z"},"B":{"x_min":0,"x_max":615,"ha":615,"o":"m 158 676 q 226 670 303 670 l 502 676 q 574 676 613 643 q 652 610 652 555 q 652 491 603 437 q 554 383 440 361 l 440 359 q 595 356 595 229 q 595 138 514 66 q 433 -6 293 -6 l 92 0 q 40 0 -30 -5 l -20 29 q -8 32 5 34 q 63 46 73 52 q 85 60 117 163 q 158 293 198 438 q 241 597 241 607 q 241 617 232 621 q 224 625 167 637 q 165 637 158 639 q 149 641 147 641 z m 319 389 q 425 386 475 431 q 524 476 524 544 q 524 627 441 627 q 420 627 385 621 z m 221 53 q 269 47 287 47 q 369 47 411 98 q 453 149 453 230 q 453 340 333 340 q 321 340 303 339 z"},"K":{"x_min":0,"x_max":740,"ha":740,"o":"m 836 676 l 827 641 q 779 634 756 625 q 733 617 712 603 q 690 589 629 540 l 511 447 q 454 403 437 388 q 582 127 600 96 q 618 65 633 56 q 648 47 727 29 l 717 -5 q 627 0 555 0 q 499 0 370 -5 l 380 29 q 381 29 416 37 q 451 45 451 55 q 451 64 420 127 l 313 347 q 299 302 268 189 q 237 75 237 61 q 237 51 250 46 q 264 42 331 29 l 322 -5 q 242 0 164 0 q 82 0 -27 -5 l -17 29 q 70 46 76 51 q 90 66 118 159 l 199 437 q 243 595 243 609 q 243 619 234 622 q 226 626 172 637 l 161 639 q 152 641 150 641 l 160 676 q 280 670 338 670 q 409 670 506 676 l 495 641 q 419 628 407 619 q 395 610 381 573 q 368 537 316 363 l 318 361 q 451 475 523 535 q 595 595 602 602 q 608 609 608 617 q 608 628 582 635 q 556 641 555 641 l 564 676 q 661 670 708 670 q 758 670 836 676 z"},"R":{"x_min":0,"x_max":698,"ha":698,"o":"m 683 29 l 673 -5 q 576 0 543 0 q 480 0 435 -5 q 416 88 347 325 q 321 325 301 327 q 231 70 231 61 q 231 47 258 43 q 284 38 325 29 l 315 -5 q 234 0 145 0 q 47 0 -28 -5 l -18 29 q 67 45 74 51 q 81 57 87 71 q 101 102 131 204 l 206 467 q 242 598 242 606 q 242 615 235 619 q 229 624 190 633 q 151 641 149 641 l 159 676 q 290 670 335 670 l 503 676 q 581 676 621 643 q 661 609 661 547 q 661 486 617 427 q 572 369 474 337 l 555 113 q 565 85 580 70 q 594 55 625 45 q 657 36 676 31 q 682 29 683 29 z m 317 380 q 332 378 354 378 q 431 378 475 423 q 519 469 519 533 q 519 622 436 622 q 415 622 382 617 z"},"T":{"x_min":0,"x_max":677,"ha":677,"o":"m 785 676 q 757 594 733 471 l 693 471 q 690 507 690 542 q 690 581 685 595 q 680 609 665 613 q 649 616 607 616 l 542 616 q 497 468 444 271 q 391 74 391 63 q 391 53 399 49 q 407 45 476 32 q 477 32 483 31 q 491 29 493 29 l 483 -5 q 354 0 300 0 q 216 0 118 -5 l 128 29 q 138 31 152 33 q 207 43 220 49 q 234 54 241 72 q 249 90 275 177 l 342 398 q 382 534 404 616 l 342 616 q 301 616 283 612 q 265 608 249 590 q 233 572 209 524 q 185 475 184 471 l 140 471 q 177 585 197 676 q 304 670 485 670 q 679 670 785 676 z"},"P":{"x_min":0,"x_max":573,"ha":573,"o":"m 159 676 q 174 674 196 674 l 322 670 l 496 676 q 571 676 615 644 q 659 611 659 549 q 659 456 586 384 q 513 312 383 312 q 344 312 299 320 q 273 230 251 149 q 230 67 230 61 q 230 52 239 47 q 248 43 296 36 q 344 29 350 29 l 340 -5 q 230 0 155 0 l -29 -5 l -18 29 q 60 44 68 48 q 77 52 86 72 q 96 93 127 196 q 159 299 200 448 q 241 597 241 606 q 241 614 235 619 q 229 624 200 631 q 171 638 148 641 z m 313 369 q 338 366 358 366 q 433 366 477 415 q 521 464 521 527 q 521 569 500 596 q 479 623 440 623 q 420 623 385 617 z"},"|":{"x_min":0,"x_max":563,"ha":563,"o":"m 372 -119 l 281 -119 l 281 712 l 372 712 z"},"t":{"x_min":0,"x_max":302,"ha":302,"o":"m 375 433 q 359 411 346 383 q 306 387 247 388 q 227 329 198 227 q 169 124 169 106 q 169 91 181 91 q 206 91 264 143 l 287 117 q 214 48 158 17 q 103 -14 71 -14 q 54 -14 42 -4 q 31 6 31 26 q 31 43 46 93 l 135 389 q 99 389 72 388 l 81 422 q 194 459 268 579 l 311 579 q 273 476 262 438 q 351 438 370 444 z"},"M":{"x_min":0,"x_max":896,"ha":896,"o":"m 1035 676 l 1025 641 q 958 630 944 624 q 930 618 920 595 q 910 573 878 468 q 846 364 812 239 q 777 114 773 95 q 772 92 769 78 q 766 70 766 62 q 766 52 779 47 q 792 42 844 33 l 855 31 q 863 29 865 29 l 856 -5 q 753 0 683 0 q 608 0 503 -5 l 513 29 q 518 29 558 38 q 599 47 607 55 q 615 62 639 133 q 663 204 694 316 l 751 515 l 749 517 l 382 0 l 338 0 l 286 538 l 284 538 l 204 242 q 172 126 163 93 q 158 79 158 66 q 158 56 170 50 q 182 43 245 29 l 236 -5 q 154 0 113 0 q 105 0 -25 -5 l -15 29 q -10 29 41 42 q 70 50 77 59 q 89 74 121 175 l 218 501 q 245 597 245 608 q 245 616 238 620 q 231 624 184 633 q 136 641 131 641 l 142 676 q 206 670 260 670 q 310 670 397 676 l 419 464 l 450 196 q 773 645 787 676 q 878 670 915 670 q 979 670 1035 676 z"},"g":{"x_min":0,"x_max":438,"ha":438,"o":"m 487 430 q 472 410 461 386 q 435 389 410 389 q 425 359 425 332 q 425 261 369 198 q 313 135 194 128 q 169 100 169 91 q 169 79 196 68 q 246 51 302 27 q 357 2 376 -17 q 395 -37 395 -64 q 395 -128 319 -169 q 243 -210 133 -210 q 42 -210 -18 -183 q -77 -155 -77 -120 q -77 -94 -48 -72 q -19 -50 71 -14 q 46 0 46 15 q 46 45 146 124 q 156 131 157 132 q 55 150 55 245 q 55 328 121 391 q 186 454 286 454 q 324 454 361 440 q 371 436 371 436 q 428 436 481 441 z m 213 167 q 256 167 283 229 q 310 292 310 358 q 310 420 266 420 q 226 420 197 352 q 168 285 168 224 q 168 167 213 167 z m 109 -32 q 38 -74 38 -106 q 38 -132 76 -147 q 115 -163 163 -163 q 205 -163 240 -150 q 276 -137 276 -117 q 276 -102 252 -92 z"},"j":{"x_min":0,"x_max":271,"ha":271,"o":"m 273 676 q 296 676 311 660 q 325 644 325 621 q 325 588 304 558 q 283 528 251 528 q 231 528 215 542 q 199 557 199 586 q 199 619 220 647 q 241 676 273 676 z m 40 319 q 113 385 169 420 q 224 454 246 454 q 256 454 265 447 q 274 439 274 425 q 274 414 244 312 l 179 94 q 144 -23 125 -64 q 107 -105 74 -136 q 42 -167 0 -188 q -41 -210 -83 -210 q -120 -210 -167 -182 q -138 -142 -117 -101 l -102 -101 q -82 -151 -39 -151 q -24 -151 -13 -144 q -1 -137 9 -114 q 20 -90 36 -32 l 107 233 q 128 311 128 319 q 128 332 118 332 q 111 332 106 327 q 64 295 61 293 z"},"i":{"x_min":0,"x_max":292,"ha":292,"o":"m 283 676 q 306 676 320 660 q 335 644 335 621 q 335 588 314 558 q 293 528 262 528 q 241 528 225 542 q 209 557 209 586 q 209 619 230 647 q 251 676 283 676 z m 59 328 q 202 454 254 454 q 279 454 279 427 q 279 414 261 360 l 182 124 q 178 110 178 103 q 178 93 187 93 q 201 93 249 134 l 272 111 q 211 52 156 19 q 102 -14 72 -14 q 42 -14 42 11 q 42 34 85 157 l 121 255 q 140 310 140 322 q 140 334 131 334 q 122 334 81 302 z"},"y":{"x_min":0,"x_max":479,"ha":479,"o":"m 434 459 q 492 433 492 376 q 492 336 462 277 q 432 218 337 98 q 243 -22 177 -92 q 111 -161 72 -185 q 32 -210 -2 -210 q -37 -210 -74 -186 q -44 -127 -32 -99 l -15 -99 q 7 -128 30 -128 q 88 -128 173 -23 q 160 167 152 236 q 144 304 135 323 q 127 342 118 342 q 107 342 65 304 l 44 327 q 168 453 215 453 q 235 453 246 427 q 258 401 267 342 q 276 283 288 111 q 345 183 374 240 q 403 298 403 327 q 403 362 367 367 l 360 385 q 400 415 434 459 z"},"@":{"x_min":0,"x_max":833,"ha":833,"o":"m 863 78 q 805 -63 697 -135 q 589 -208 448 -208 q 268 -208 149 -92 q 31 24 31 205 q 31 396 159 524 q 288 653 486 653 q 644 653 734 562 q 824 471 824 335 q 824 199 745 100 q 665 0 542 0 q 496 0 471 22 q 446 44 446 84 q 446 105 457 147 l 455 149 q 374 0 295 0 q 257 0 236 30 q 216 60 216 106 q 216 190 256 271 q 295 351 355 402 q 415 453 459 453 q 520 453 525 380 l 527 380 l 542 436 l 657 440 l 575 158 q 564 122 561 102 q 557 83 557 72 q 557 56 568 45 q 579 34 595 34 q 631 34 682 74 q 732 113 765 180 q 798 247 798 326 q 798 408 760 477 q 723 546 655 585 q 586 623 496 623 q 312 623 196 495 q 80 368 80 189 q 80 24 185 -79 q 290 -182 448 -182 q 570 -182 677 -116 q 785 -49 834 78 z m 365 86 q 399 86 452 178 q 505 270 505 356 q 505 387 495 403 q 485 419 473 419 q 431 419 384 309 q 337 199 337 131 q 337 110 345 98 q 354 86 365 86 z"},".":{"x_min":0,"x_max":281,"ha":281,"o":"m 143 162 q 172 162 193 142 q 214 121 214 85 q 214 45 188 15 q 162 -14 126 -14 q 98 -14 78 5 q 58 24 58 59 q 58 99 83 131 q 107 162 143 162 z"},"p":{"x_min":0,"x_max":479,"ha":479,"o":"m 217 297 q 271 371 319 412 q 367 454 396 454 q 432 454 455 419 q 478 384 478 328 q 478 198 393 92 q 309 -14 215 -14 q 179 -14 143 3 q 106 -109 106 -136 q 106 -147 123 -155 q 141 -163 187 -169 l 177 -204 q 92 -199 43 -199 q -2 -199 -104 -204 l -94 -169 l -50 -159 q -30 -154 -22 -148 q -14 -143 0 -106 q 13 -69 30 -10 l 79 147 l 117 290 q 122 305 122 321 q 122 332 112 332 q 101 332 69 303 q 62 296 57 293 l 37 316 q 102 382 157 418 q 212 454 236 454 q 247 454 253 446 q 260 438 260 428 q 260 396 215 299 z m 160 70 q 193 41 222 41 q 274 41 315 124 q 356 207 356 287 q 356 345 326 345 q 298 345 256 296 q 214 247 160 70 z"},"X":{"x_min":0,"x_max":740,"ha":740,"o":"m 846 676 l 837 641 q 783 629 762 615 q 741 602 663 528 l 518 395 q 515 393 496 374 l 559 142 q 578 73 588 61 q 597 48 643 39 q 688 29 693 29 l 685 -5 q 582 0 503 0 q 420 0 340 -5 l 350 29 q 356 31 369 33 q 410 42 424 50 q 438 57 438 71 q 438 83 424 136 l 389 273 q 276 165 241 129 q 206 93 194 80 q 182 67 182 56 q 182 47 192 43 q 201 39 235 31 l 246 29 l 237 -5 q 165 0 123 0 q 118 0 -7 -5 l 4 29 q 27 30 49 42 q 71 54 160 134 q 249 215 373 335 l 322 522 q 301 596 294 607 q 288 618 270 624 q 253 630 202 641 l 212 676 q 292 670 380 670 q 452 670 555 676 l 547 641 q 441 621 441 594 q 441 587 444 572 l 479 436 q 515 469 575 528 q 636 587 645 598 q 654 609 654 619 q 654 637 594 641 l 605 676 q 668 670 736 670 q 776 670 846 676 z"},"*":{"x_min":0,"x_max":458,"ha":458,"o":"m 506 527 l 331 515 l 464 402 l 373 337 l 306 498 l 239 337 l 147 402 l 281 515 l 108 531 l 143 635 l 291 542 l 252 712 l 363 712 l 322 542 l 471 632 z"},"Y":{"x_min":0,"x_max":646,"ha":646,"o":"m 797 676 l 788 641 q 747 633 731 626 q 710 617 688 591 q 672 575 621 509 l 456 298 l 401 94 q 393 68 393 62 q 393 52 400 49 q 406 45 450 37 q 495 29 496 29 l 485 -5 q 404 0 308 0 q 209 0 121 -5 l 131 29 q 139 29 183 38 q 228 47 234 53 q 240 60 257 107 q 274 154 297 233 q 320 312 320 315 l 250 566 q 248 571 245 583 q 238 609 231 615 q 223 622 184 631 q 144 641 141 641 l 152 676 q 269 670 325 670 q 392 670 496 676 l 487 641 q 429 628 408 618 q 386 607 386 594 q 386 588 438 371 l 550 525 q 591 581 599 594 q 606 607 606 615 q 606 624 590 630 q 574 635 546 641 l 554 676 q 638 670 674 670 q 701 670 797 676 z"},"c":{"x_min":0,"x_max":375,"ha":375,"o":"m 437 430 q 414 377 397 311 l 357 314 q 357 408 298 408 q 244 408 200 326 q 156 244 156 159 q 156 126 167 98 q 178 70 209 70 q 250 70 331 138 l 357 108 q 235 -14 139 -14 q 87 -14 60 23 q 33 61 33 127 q 33 204 74 282 q 116 360 185 407 q 253 454 332 454 q 385 454 437 430 z"},"!":{"x_min":0,"x_max":281,"ha":281,"o":"m 388 673 q 351 592 286 430 q 222 268 211 243 l 198 211 l 152 211 q 210 535 222 648 q 298 661 363 691 z m 143 162 q 172 162 193 142 q 214 121 214 85 q 214 44 188 15 q 163 -14 126 -14 q 97 -14 78 6 q 58 26 58 60 q 58 99 83 131 q 107 162 143 162 z"},"/":{"x_min":0,"x_max":563,"ha":563,"o":"m 555 712 l 198 -2 l 102 -2 l 458 712 z"},"[":{"x_min":0,"x_max":312,"ha":312,"o":"m 429 703 l 416 653 l 329 653 l 93 -151 l 181 -151 l 165 -201 q 101 -198 69 -198 q 27 -198 -36 -201 l 129 351 l 229 703 q 283 701 333 701 q 376 701 429 703 z"},"6":{"x_min":0,"x_max":490,"ha":490,"o":"m 538 646 q 336 550 238 360 l 240 358 q 337 441 386 441 q 430 441 463 401 q 497 361 497 291 q 497 175 416 79 q 335 -17 222 -17 q 140 -17 102 30 q 64 77 64 149 q 64 307 180 461 q 295 615 520 691 z m 255 39 q 305 39 338 107 q 370 175 370 253 q 370 353 312 353 q 262 353 225 295 q 187 238 187 159 q 187 39 255 39 z"},"r":{"x_min":0,"x_max":365,"ha":365,"o":"m 437 443 q 412 385 389 320 l 359 322 q 354 334 343 334 q 325 334 300 305 q 275 275 241 222 q 208 169 196 141 q 185 113 152 13 q 149 2 148 0 q 71 0 27 -5 q 129 288 129 319 q 129 332 119 332 q 109 332 68 299 l 47 321 q 110 385 161 419 q 211 454 235 454 q 259 454 259 428 q 259 404 252 384 l 187 208 l 189 206 q 271 360 310 407 q 350 454 396 454 q 411 454 437 443 z"},"2":{"x_min":0,"x_max":490,"ha":490,"o":"m 193 636 q 265 688 352 688 q 433 688 474 646 q 515 604 515 544 q 515 496 490 444 q 465 393 404 327 q 342 262 191 130 q 184 125 166 107 l 316 107 q 363 107 383 118 q 403 129 432 178 l 476 178 q 406 19 395 -5 q 292 0 206 0 q 175 0 -1 -5 l 7 33 q 137 149 263 285 q 389 420 389 516 q 389 538 381 556 q 372 574 355 584 q 338 594 314 594 q 241 594 193 505 l 153 508 q 153 512 157 520 q 182 584 193 636 z"},"{":{"x_min":0,"x_max":396,"ha":396,"o":"m 398 -202 q 299 -204 243 -148 q 197 -102 197 -45 q 197 -5 212 45 q 223 89 223 121 q 223 205 128 223 l 128 253 q 223 269 223 359 q 223 393 213 432 q 198 481 198 519 q 198 573 244 622 q 290 671 398 677 l 398 655 q 303 637 303 563 q 303 524 314 484 q 327 428 327 399 q 327 349 287 302 q 247 256 167 240 l 167 238 q 254 214 291 169 q 328 123 328 77 q 328 48 316 0 q 304 -47 304 -83 q 304 -162 398 -179 z"},"9":{"x_min":0,"x_max":490,"ha":490,"o":"m 364 318 q 272 234 223 234 q 173 234 139 275 q 105 317 105 390 q 105 501 186 594 q 266 687 375 687 q 456 687 497 635 q 537 584 537 511 q 537 357 417 204 q 296 51 80 -20 l 62 26 q 271 126 366 316 z m 293 321 q 338 321 376 375 q 414 429 414 518 q 414 631 346 631 q 299 631 266 566 q 233 501 233 433 q 233 321 293 321 z"}," ":{"x_min":0,"x_max":245,"ha":245,"o":""},"I":{"x_min":0,"x_max":365,"ha":365,"o":"m 509 676 l 499 641 q 490 641 454 633 q 417 624 408 616 q 398 609 382 566 q 366 523 332 408 q 298 293 267 180 q 237 67 237 64 q 237 53 250 47 q 263 41 336 29 l 326 -5 q 244 0 148 0 l -25 -5 l -14 29 q -2 33 10 34 q 49 42 63 46 q 77 50 83 60 q 89 69 113 139 q 136 209 168 319 q 200 428 224 515 q 247 601 247 609 q 247 618 241 621 q 235 625 196 633 q 156 641 151 641 l 160 676 q 272 670 337 670 q 411 670 509 676 z"},"H":{"x_min":0,"x_max":740,"ha":740,"o":"m 881 676 l 872 641 q 794 628 781 617 q 765 603 728 478 l 664 253 q 615 76 615 62 q 615 52 624 47 q 632 43 714 29 l 704 -5 q 621 0 537 0 q 444 0 353 -5 l 362 29 q 365 29 406 38 q 447 46 457 56 q 466 66 489 140 q 513 213 546 330 l 308 330 q 238 86 238 62 q 238 53 246 48 q 253 43 289 36 q 324 29 332 29 l 323 -5 q 205 0 143 0 q 68 0 -24 -5 l -16 29 q 0 33 9 34 q 62 44 74 52 q 86 59 112 140 q 138 220 191 407 q 243 594 243 608 q 243 618 235 622 q 228 627 191 634 q 154 641 149 641 l 159 676 q 261 670 332 670 q 417 670 506 676 l 497 641 q 479 641 445 634 q 411 627 401 616 q 391 605 369 538 q 347 472 324 387 q 451 386 562 387 l 604 541 q 621 604 621 609 q 621 619 610 624 q 599 629 527 641 l 538 676 q 625 670 700 670 q 768 670 881 676 z"},"4":{"x_min":0,"x_max":490,"ha":490,"o":"m 536 670 q 499 584 402 241 q 451 241 486 247 l 495 234 q 471 199 457 157 q 431 160 379 161 q 355 74 355 63 q 355 53 363 48 q 370 42 387 39 l 426 31 q 430 31 441 28 l 432 -5 q 335 0 291 0 q 235 0 135 -5 l 145 28 q 153 31 161 31 q 202 38 213 43 q 224 48 234 71 q 244 93 265 161 q 61 160 32 158 q 43 199 47 232 q 283 491 404 636 q 463 654 516 687 z m 382 533 l 380 535 q 379 532 361 510 l 324 466 l 226 353 q 146 263 127 241 l 291 241 q 326 375 382 533 z"},"~":{"x_min":0,"x_max":667,"ha":667,"o":"m 649 412 q 645 327 606 286 q 567 245 512 245 q 476 245 439 258 q 402 271 328 302 q 259 332 227 332 q 157 332 143 245 l 112 245 q 114 333 154 372 q 193 412 244 412 q 271 412 308 402 q 345 393 432 355 q 503 324 533 324 q 566 324 590 346 q 613 368 618 412 z"},"D":{"x_min":0,"x_max":750,"ha":750,"o":"m 158 676 q 256 670 304 670 l 323 670 l 516 673 q 777 673 777 442 q 777 336 718 228 q 660 120 548 58 q 437 -5 283 -5 l 107 0 q 96 0 -29 -5 l -18 29 q -11 29 27 37 q 65 44 74 52 q 83 59 94 87 q 105 116 140 237 l 208 475 q 241 591 241 607 q 241 622 218 626 q 192 631 167 637 q 153 641 148 641 z m 231 57 q 289 49 323 49 q 452 49 539 163 q 625 277 625 434 q 625 535 581 579 q 537 624 460 624 q 425 624 390 618 l 318 373 q 281 244 257 154 q 233 63 231 57 z"},"^":{"x_min":0,"x_max":573,"ha":573,"o":"m 581 361 l 503 361 l 359 611 l 218 361 l 143 361 l 344 712 l 384 712 z"},"0":{"x_min":0,"x_max":490,"ha":490,"o":"m 399 688 q 535 688 535 513 q 535 395 489 266 q 442 137 367 60 q 292 -17 207 -17 q 142 -17 106 25 q 70 67 70 165 q 70 317 163 503 q 256 688 399 688 z m 243 40 q 301 40 354 232 q 406 425 406 548 q 406 629 361 629 q 330 629 300 573 q 271 517 234 366 q 197 216 197 121 q 197 40 243 40 z"},"F":{"x_min":0,"x_max":594,"ha":594,"o":"m 717 676 q 703 620 690 574 q 677 528 667 479 l 627 479 q 625 567 622 585 q 619 603 607 609 q 595 615 563 615 l 391 615 q 360 520 322 377 l 372 377 q 422 377 436 389 q 450 402 484 462 q 487 467 488 468 l 528 468 l 493 351 q 475 292 460 229 q 460 221 456 209 l 415 209 q 421 285 421 294 q 421 316 408 321 q 396 326 354 326 l 306 326 l 255 137 q 236 64 236 61 q 236 49 250 47 l 354 29 l 345 -5 q 240 0 167 0 q 98 0 -29 -5 l -18 29 q -12 31 6 33 q 56 43 67 47 q 77 52 92 86 q 106 121 124 180 l 174 353 q 208 465 225 530 q 242 594 242 607 q 242 617 235 621 q 229 625 190 633 q 152 641 149 641 l 158 676 q 321 670 442 670 q 571 670 717 676 z"},"`":{"x_min":0,"x_max":333,"ha":333,"o":"m 339 514 l 296 514 q 262 551 249 566 q 236 582 193 626 q 149 669 148 672 l 155 684 q 214 683 277 684 q 312 580 332 531 q 334 527 339 514 z"},"k":{"x_min":0,"x_max":500,"ha":500,"o":"m 234 329 q 352 454 457 454 q 486 454 503 440 q 520 426 520 400 q 520 270 313 218 l 359 131 q 359 128 374 103 q 389 78 401 78 q 417 78 466 118 l 489 93 q 380 -14 329 -14 q 312 -14 297 5 q 283 24 253 98 q 226 161 200 201 l 141 0 q 57 0 18 -5 q 200 579 200 602 q 200 617 183 617 q 180 617 162 615 q 139 613 135 613 l 145 647 q 279 680 338 712 l 360 692 q 309 575 232 331 z m 206 242 q 322 250 366 291 q 409 331 409 373 q 409 395 388 395 q 365 395 327 365 q 290 335 258 303 q 226 271 217 260 q 208 250 206 242 z"},"u":{"x_min":0,"x_max":521,"ha":521,"o":"m 525 448 q 474 303 446 208 q 419 112 419 104 q 419 92 428 92 q 438 92 490 133 l 511 110 q 458 56 403 21 q 348 -14 317 -14 q 285 -14 285 9 q 285 32 307 95 q 329 158 337 175 l 335 177 q 191 -14 88 -14 q 44 -14 44 26 q 44 47 53 77 l 94 202 q 125 297 127 302 q 132 317 132 324 q 132 333 124 333 q 115 333 72 297 l 51 321 q 189 454 247 454 q 275 454 275 425 q 275 388 227 263 q 212 226 195 174 q 178 122 178 110 q 178 94 191 94 q 205 94 240 125 q 274 156 306 200 q 338 243 354 286 q 371 330 400 434 q 467 437 525 448 z"},"]":{"x_min":0,"x_max":302,"ha":302,"o":"m 404 703 l 239 151 l 139 -201 q 85 -199 35 -199 q -8 -199 -61 -201 l -48 -151 l 39 -151 l 275 653 l 187 653 l 203 703 q 267 700 299 700 q 341 700 404 703 z"},"U":{"x_min":0,"x_max":708,"ha":708,"o":"m 860 676 l 848 641 q 776 626 768 622 q 759 617 751 600 q 743 584 723 523 q 703 462 670 347 q 634 218 614 164 q 593 109 557 65 q 521 22 467 1 q 414 -20 342 -20 q 222 -20 173 34 q 123 87 123 157 q 123 213 153 311 q 179 401 205 498 q 230 594 230 607 q 230 619 216 624 q 203 630 138 641 l 148 676 q 234 670 315 670 q 396 670 493 676 l 483 641 q 475 641 436 632 q 397 623 391 615 q 379 599 361 547 q 352 520 325 429 q 290 309 278 258 q 266 207 266 171 q 266 141 280 115 q 293 89 321 74 q 348 60 387 60 q 435 60 469 79 q 502 98 524 125 q 545 153 562 197 q 580 241 604 330 l 652 506 q 676 593 676 602 q 676 615 662 622 q 648 629 588 641 l 598 676 q 712 670 741 670 q 784 670 860 676 z"},"o":{"x_min":0,"x_max":458,"ha":458,"o":"m 328 454 q 389 454 422 417 q 455 380 455 310 q 455 226 414 150 q 373 75 304 31 q 236 -14 164 -14 q 105 -14 70 27 q 34 68 34 135 q 34 214 75 289 q 117 364 185 409 q 254 454 328 454 z m 205 31 q 252 31 294 130 q 336 229 336 324 q 336 408 284 408 q 232 408 194 302 q 155 196 155 122 q 155 80 168 55 q 182 31 205 31 z"},"N":{"x_min":0,"x_max":708,"ha":708,"o":"m 855 676 l 845 641 q 834 641 798 633 q 762 624 751 610 q 741 596 725 545 l 626 211 l 564 -15 q 522 -20 520 -20 l 423 212 q 373 334 338 414 q 304 493 287 537 l 285 537 q 260 455 234 355 l 185 172 q 162 88 161 81 q 159 73 159 67 q 159 57 169 51 q 179 44 231 32 q 232 32 238 30 q 245 29 246 29 l 236 -5 q 168 0 113 0 q 67 0 -25 -5 l -14 29 q -13 29 -4 31 q 49 42 63 47 q 78 53 86 72 q 95 92 134 217 q 172 341 209 469 q 245 596 245 606 q 245 615 239 619 q 233 624 186 632 q 138 641 132 641 l 142 676 q 236 670 268 670 q 319 670 374 676 l 569 215 l 632 448 q 672 594 672 605 q 672 615 659 622 q 646 628 584 641 l 593 676 q 685 670 725 670 q 811 670 855 676 z"},"+":{"x_min":0,"x_max":667,"ha":667,"o":"m 662 288 l 437 288 l 437 65 l 347 65 l 347 288 l 122 288 l 122 379 l 347 379 l 347 604 l 437 604 l 437 379 l 662 379 z"},"G":{"x_min":0,"x_max":760,"ha":760,"o":"m 793 326 l 783 292 q 712 278 700 271 q 689 264 675 222 q 661 181 630 48 q 520 8 461 -6 q 401 -20 341 -20 q 210 -20 147 47 q 85 114 85 227 q 85 336 144 448 q 204 561 310 626 q 416 692 552 692 q 667 692 766 649 q 748 597 709 466 l 663 468 q 663 560 654 586 q 645 613 610 626 q 575 639 539 639 q 411 639 324 518 q 237 396 237 241 q 237 149 277 98 q 317 47 394 47 q 443 47 497 71 l 545 241 q 548 250 548 258 q 548 269 533 275 q 519 281 462 292 l 472 326 q 564 320 628 320 q 635 320 686 322 l 762 324 q 788 325 793 326 z"},"q":{"x_min":0,"x_max":479,"ha":479,"o":"m 499 419 q 471 378 437 266 l 362 19 q 322 -115 322 -134 q 322 -147 333 -153 q 344 -159 395 -169 l 385 -204 q 262 -199 244 -199 q 167 -199 95 -204 l 105 -169 q 142 -164 166 -159 q 190 -154 197 -146 q 203 -138 213 -111 q 223 -83 234 -44 l 256 26 q 265 56 280 101 l 278 103 q 212 30 180 8 q 148 -14 116 -14 q 81 -14 58 17 q 34 48 34 109 q 34 244 132 349 q 230 454 357 454 q 387 454 491 435 z m 366 389 q 335 402 312 402 q 253 402 205 320 q 156 238 156 152 q 156 94 195 94 q 213 94 234 109 q 254 124 276 154 q 297 183 308 214 l 331 279 q 343 314 366 389 z"},"d":{"x_min":0,"x_max":500,"ha":500,"o":"m 584 693 q 480 442 437 283 q 393 124 393 111 q 393 96 405 96 q 418 96 462 135 l 483 112 q 427 52 371 19 q 315 -14 293 -14 q 283 -14 274 -8 q 266 -1 266 12 q 266 25 297 125 l 295 127 q 188 -14 118 -14 q 82 -14 58 20 q 34 54 34 119 q 34 248 122 351 q 209 454 322 454 q 346 454 378 440 q 425 582 425 604 q 425 618 406 618 q 388 618 360 613 l 369 648 q 460 663 563 712 z m 360 373 q 327 401 296 401 q 240 401 200 316 q 159 231 159 154 q 159 94 194 94 q 227 94 271 150 q 314 206 360 373 z"},"1":{"x_min":0,"x_max":490,"ha":490,"o":"m 472 668 q 436 574 385 398 l 313 148 q 292 73 292 66 q 292 51 303 45 q 314 40 359 32 q 372 30 378 28 l 368 -5 q 270 0 224 0 q 191 0 64 -5 l 74 28 q 131 42 144 47 q 156 53 164 71 q 172 88 205 196 l 272 424 q 308 544 308 558 q 308 572 291 572 q 280 572 242 566 l 217 563 l 228 600 q 363 635 450 687 z"},"5":{"x_min":0,"x_max":490,"ha":490,"o":"m 541 662 q 513 619 493 563 q 374 569 277 569 l 239 484 q 373 484 419 425 q 465 365 465 287 q 465 173 379 78 q 293 -17 159 -17 q 95 -17 36 8 q 65 61 83 136 l 121 136 q 125 41 204 41 q 265 41 305 94 q 346 146 346 225 q 346 297 311 340 q 275 382 210 382 q 182 382 156 374 l 135 397 q 212 532 260 674 q 330 670 357 670 q 428 670 533 675 z"}}}
